<svg width="100" height="55" viewBox="0 0 100 55" fill="none" xmlns="http://www.w3.org/2000/svg">
<g id="Group">
<path id="Vector" d="M96 0H4C1.79086 0 0 1.79086 0 4V51C0 53.2091 1.79086 55 4 55H96C98.2091 55 100 53.2091 100 51V4C100 1.79086 98.2091 0 96 0Z" fill="white" stroke="#D2CFCF"/>
<path id="Theme" d="M25.7727 21.6136V20.3636H34.5V21.6136H30.8409V32H29.4318V21.6136H25.7727ZM37.8338 26.75V32H36.4929V20.3636H37.8338V24.6364H37.9474C38.152 24.1856 38.4588 23.8277 38.8679 23.5625C39.2808 23.2936 39.83 23.1591 40.5156 23.1591C41.1103 23.1591 41.6312 23.2784 42.0781 23.517C42.5251 23.7519 42.8717 24.1136 43.1179 24.6023C43.3679 25.0871 43.4929 25.7045 43.4929 26.4545V32H42.152V26.5455C42.152 25.8523 41.9721 25.3163 41.6122 24.9375C41.2562 24.5549 40.7618 24.3636 40.1293 24.3636C39.6899 24.3636 39.2959 24.4564 38.9474 24.642C38.6027 24.8277 38.33 25.0985 38.1293 25.4545C37.9323 25.8106 37.8338 26.2424 37.8338 26.75ZM49.6051 32.1818C48.7642 32.1818 48.0388 31.9962 47.429 31.625C46.8229 31.25 46.3551 30.7273 46.0256 30.0568C45.6998 29.3826 45.5369 28.5985 45.5369 27.7045C45.5369 26.8106 45.6998 26.0227 46.0256 25.3409C46.3551 24.6553 46.8134 24.1212 47.4006 23.7386C47.9915 23.3523 48.6809 23.1591 49.4688 23.1591C49.9233 23.1591 50.3722 23.2348 50.8153 23.3864C51.2585 23.5379 51.6619 23.7841 52.0256 24.125C52.3892 24.4621 52.679 24.9091 52.8949 25.4659C53.1108 26.0227 53.2188 26.7083 53.2188 27.5227V28.0909H46.4915V26.9318H51.8551C51.8551 26.4394 51.7566 26 51.5597 25.6136C51.3665 25.2273 51.09 24.9223 50.7301 24.6989C50.3741 24.4754 49.9536 24.3636 49.4688 24.3636C48.9347 24.3636 48.4725 24.4962 48.0824 24.7614C47.696 25.0227 47.3987 25.3636 47.1903 25.7841C46.982 26.2045 46.8778 26.6553 46.8778 27.1364V27.9091C46.8778 28.5682 46.9915 29.1269 47.2188 29.5852C47.4498 30.0398 47.7699 30.3864 48.179 30.625C48.5881 30.8598 49.0634 30.9773 49.6051 30.9773C49.9574 30.9773 50.2756 30.928 50.5597 30.8295C50.8475 30.7273 51.0956 30.5758 51.304 30.375C51.5123 30.1705 51.6733 29.9167 51.7869 29.6136L53.0824 29.9773C52.946 30.4167 52.7169 30.803 52.3949 31.1364C52.0729 31.4659 51.6752 31.7235 51.2017 31.9091C50.7282 32.0909 50.196 32.1818 49.6051 32.1818ZM55.2585 32V23.2727H56.554V24.6364H56.6676C56.8494 24.1705 57.143 23.8087 57.5483 23.5511C57.9536 23.2898 58.4403 23.1591 59.0085 23.1591C59.5843 23.1591 60.0634 23.2898 60.446 23.5511C60.8324 23.8087 61.1335 24.1705 61.3494 24.6364H61.4403C61.6638 24.1856 61.9991 23.8277 62.446 23.5625C62.893 23.2936 63.429 23.1591 64.054 23.1591C64.8343 23.1591 65.4725 23.4034 65.9688 23.892C66.465 24.3769 66.7131 25.1326 66.7131 26.1591V32H65.3722V26.1591C65.3722 25.5152 65.196 25.0549 64.8438 24.7784C64.4915 24.5019 64.0767 24.3636 63.5994 24.3636C62.9858 24.3636 62.5104 24.5492 62.1733 24.9205C61.8362 25.2879 61.6676 25.7538 61.6676 26.3182V32H60.304V26.0227C60.304 25.5265 60.143 25.1269 59.821 24.8239C59.4991 24.517 59.0843 24.3636 58.5767 24.3636C58.2282 24.3636 57.9025 24.4564 57.5994 24.642C57.3002 24.8277 57.0578 25.0852 56.8722 25.4148C56.6903 25.7405 56.5994 26.1174 56.5994 26.5455V32H55.2585ZM72.8239 32.1818C71.983 32.1818 71.2576 31.9962 70.6477 31.625C70.0417 31.25 69.5739 30.7273 69.2443 30.0568C68.9186 29.3826 68.7557 28.5985 68.7557 27.7045C68.7557 26.8106 68.9186 26.0227 69.2443 25.3409C69.5739 24.6553 70.0322 24.1212 70.6193 23.7386C71.2102 23.3523 71.8996 23.1591 72.6875 23.1591C73.142 23.1591 73.5909 23.2348 74.0341 23.3864C74.4773 23.5379 74.8807 23.7841 75.2443 24.125C75.608 24.4621 75.8977 24.9091 76.1136 25.4659C76.3295 26.0227 76.4375 26.7083 76.4375 27.5227V28.0909H69.7102V26.9318H75.0739C75.0739 26.4394 74.9754 26 74.7784 25.6136C74.5852 25.2273 74.3087 24.9223 73.9489 24.6989C73.5928 24.4754 73.1723 24.3636 72.6875 24.3636C72.1534 24.3636 71.6913 24.4962 71.3011 24.7614C70.9148 25.0227 70.6174 25.3636 70.4091 25.7841C70.2008 26.2045 70.0966 26.6553 70.0966 27.1364V27.9091C70.0966 28.5682 70.2102 29.1269 70.4375 29.5852C70.6686 30.0398 70.9886 30.3864 71.3977 30.625C71.8068 30.8598 72.2822 30.9773 72.8239 30.9773C73.1761 30.9773 73.4943 30.928 73.7784 30.8295C74.0663 30.7273 74.3144 30.5758 74.5227 30.375C74.7311 30.1705 74.892 29.9167 75.0057 29.6136L76.3011 29.9773C76.1648 30.4167 75.9356 30.803 75.6136 31.1364C75.2917 31.4659 74.8939 31.7235 74.4205 31.9091C73.947 32.0909 73.4148 32.1818 72.8239 32.1818Z" fill="#212121"/>
</g>
</svg>
