<?xml version="1.0" encoding="UTF-8"?>
<svg width="1200pt" height="1200pt" version="1.1" viewBox="0 0 1200 1200" xmlns="http://www.w3.org/2000/svg">
 <path d="m600 243.75c-94.484 0-185.1 37.535-251.91 104.34s-104.34 157.42-104.34 251.91 37.535 185.1 104.34 251.91 157.42 104.34 251.91 104.34 185.1-37.535 251.91-104.34 104.34-157.42 104.34-251.91c-0.10547-94.453-37.672-185-104.46-251.79-66.789-66.785-157.34-104.35-251.79-104.46zm0 675c-84.539 0-165.61-33.582-225.39-93.359s-93.359-140.85-93.359-225.39 33.582-165.61 93.359-225.39 140.85-93.359 225.39-93.359 165.61 33.582 225.39 93.359 93.359 140.85 93.359 225.39c-0.09375 84.508-33.707 165.53-93.465 225.29-59.754 59.758-140.78 93.371-225.29 93.465z"/>
 <path d="m770.23 802.5c-39.949 7.7812-81.309 3.5742-118.87-12.102-37.562-15.672-69.645-42.109-92.215-75.98-22.566-33.871-34.609-73.66-34.609-114.36 0-40.699 12.043-80.488 34.609-114.36 22.57-33.871 54.652-60.309 92.215-75.98 37.559-15.676 78.918-19.887 118.87-12.102 5.5391 1.0625 11.266-0.42578 15.586-4.0508 4.3203-3.625 6.7773-9.0039 6.6953-14.645-0.085938-5.6406-2.7031-10.941-7.1289-14.438-52.691-41.898-118.06-64.637-185.38-64.48-79.566 0-155.87 31.605-212.13 87.867-56.262 56.262-87.867 132.57-87.867 212.13s31.605 155.87 87.867 212.13c56.262 56.262 132.57 87.867 212.13 87.867 67.312 0.16797 132.68-22.551 185.38-64.426 4.4258-3.4961 7.043-8.7969 7.1289-14.438 0.082031-5.6406-2.375-11.016-6.6953-14.641-4.3203-3.6289-10.047-5.1133-15.586-4.0508z"/>
 <path d="m600 225c4.9727 0 9.7422-1.9766 13.258-5.4922 3.5156-3.5156 5.4922-8.2852 5.4922-13.258v-150c0-6.6992-3.5742-12.887-9.375-16.238-5.8008-3.3477-12.949-3.3477-18.75 0-5.8008 3.3516-9.375 9.5391-9.375 16.238v150c0 4.9727 1.9766 9.7422 5.4922 13.258 3.5156 3.5156 8.2852 5.4922 13.258 5.4922z"/>
 <path d="m480 224.51c1.0625 3.9844 3.4102 7.5078 6.6797 10.023 3.2656 2.5117 7.2734 3.8828 11.395 3.8906 1.6484 0 3.2891-0.21875 4.875-0.65625 4.8008-1.2891 8.8945-4.4297 11.379-8.7305 2.4844-4.3047 3.1602-9.418 1.8789-14.219l-19.332-72.453c-1.7344-6.4688-6.7891-11.523-13.262-13.258-6.4727-1.7305-13.375 0.12109-18.113 4.8594-4.7344 4.7383-6.5859 11.641-4.8516 18.113z"/>
 <path d="m308.3 334.82c4.7656 4.5977 11.598 6.3438 17.984 4.5938 6.3867-1.75 11.375-6.7383 13.125-13.125 1.75-6.3867 0.003907-13.219-4.5938-17.984l-53.023-53.023h-0.003906c-3.4922-3.6172-8.293-5.6797-13.324-5.7227-5.0273-0.042969-9.8633 1.9336-13.418 5.4922-3.5586 3.5547-5.5352 8.3906-5.4922 13.418 0.042968 5.0312 2.1055 9.832 5.7227 13.324z"/>
 <path d="m224.51 480-72.449-19.445c-6.4883-1.7305-13.406 0.13281-18.148 4.8828-4.7461 4.7539-6.5938 11.676-4.8477 18.16 1.7422 6.4844 6.8164 11.547 13.301 13.277l72.43 19.426h0.003906c1.5898 0.42188 3.2266 0.63672 4.875 0.63672 6.1172-0.003906 11.848-2.9883 15.352-8.0039 3.5078-5.0117 4.3477-11.418 2.2539-17.164-2.0938-5.75-6.8594-10.113-12.77-11.695z"/>
 <path d="m214.8 683.81-72.434 19.406c-4.8242 1.2656-8.9453 4.4023-11.449 8.7188-2.5039 4.3125-3.1875 9.4453-1.8984 14.262 1.2891 4.8203 4.4453 8.9258 8.7695 11.41 4.3242 2.4883 9.4609 3.1445 14.273 1.8359l72.449-19.445c4.9219-1.1797 9.1562-4.2969 11.746-8.6445 2.5898-4.3516 3.3086-9.5586 1.9961-14.449-1.3086-4.8867-4.543-9.0352-8.957-11.508-4.418-2.4688-9.6445-3.0469-14.496-1.6055z"/>
 <path d="m334.82 865.18c-3.5195-3.5117-8.2852-5.4883-13.258-5.4883s-9.7383 1.9766-13.258 5.4883l-53.023 53.023v0.003906c-3.6172 3.4922-5.6797 8.293-5.7227 13.324-0.042969 5.0273 1.9336 9.8633 5.4922 13.418 3.5547 3.5586 8.3906 5.5352 13.418 5.4922 5.0312-0.042968 9.832-2.1055 13.324-5.7227l53.023-53.023h0.003906c3.5117-3.5195 5.4883-8.2852 5.4883-13.258s-1.9766-9.7383-5.4883-13.258z"/>
 <path d="m502.93 962.23c-4.8008-1.2812-9.9141-0.60547-14.219 1.8789-4.3008 2.4844-7.4414 6.5781-8.7305 11.379l-19.426 72.449c-1.2812 4.8047-0.60156 9.9219 1.8867 14.223 2.4883 4.3047 6.5859 7.4453 11.391 8.7266 1.582 0.43359 3.2148 0.64844 4.8555 0.63672 4.125-0.003907 8.1328-1.3672 11.402-3.8789 3.2734-2.5117 5.625-6.0312 6.6914-10.012l19.406-72.43v-0.003906c1.2891-4.8047 0.61719-9.9219-1.8711-14.23-2.4844-4.3086-6.582-7.4492-11.387-8.7383z"/>
 <path d="m720 975.49c-1.1797-4.9219-4.2969-9.1562-8.6445-11.746-4.3516-2.5898-9.5586-3.3086-14.449-1.9961-4.8867 1.3086-9.0352 4.543-11.508 8.957-2.4688 4.418-3.0469 9.6445-1.6055 14.496l19.406 72.43v0.003906c1.0703 3.9805 3.4219 7.5 6.6914 10.012s7.2773 3.875 11.402 3.8789c1.6406 0.011718 3.2734-0.20313 4.8555-0.63672 4.8047-1.2812 8.9023-4.4219 11.391-8.7266 2.4883-4.3008 3.168-9.418 1.8867-14.223z"/>
 <path d="m891.7 865.18c-4.7656-4.5977-11.598-6.3438-17.984-4.5938-6.3867 1.75-11.375 6.7383-13.125 13.125-1.75 6.3867-0.003907 13.219 4.5938 17.984l53.023 53.023h0.003906c4.7617 4.6016 11.598 6.3477 17.984 4.5977 6.3828-1.7539 11.371-6.7422 13.125-13.125 1.75-6.3867 0.003906-13.223-4.5977-17.984z"/>
 <path d="m975.49 720 72.449 19.426c6.457 1.6953 13.332-0.17188 18.047-4.9023 4.7109-4.7305 6.5547-11.613 4.832-18.062-1.7188-6.4531-6.7422-11.504-13.184-13.262l-72.434-19.387c-4.8516-1.4414-10.078-0.86328-14.496 1.6055-4.4141 2.4688-7.6484 6.6211-8.957 11.508-1.3125 4.8867-0.59375 10.098 1.9961 14.449 2.5898 4.3477 6.8242 7.4648 11.746 8.6445z"/>
 <path d="m985.2 516.21 72.434-19.332c6.4414-1.7578 11.465-6.8086 13.184-13.258 1.7227-6.4531-0.12109-13.336-4.832-18.066-4.7148-4.7305-11.59-6.5977-18.047-4.9023l-72.449 19.352c-5.9102 1.582-10.676 5.9453-12.77 11.691-2.0938 5.75-1.2539 12.156 2.2539 17.168 3.5039 5.0117 9.2344 8 15.352 8.0039 1.6484-0.007812 3.2852-0.22656 4.875-0.65625z"/>
 <path d="m865.18 334.82c3.5195 3.5117 8.2852 5.4883 13.258 5.4883s9.7383-1.9766 13.258-5.4883l53.023-53.023v-0.003906c3.6172-3.4922 5.6797-8.293 5.7227-13.324 0.042969-5.0273-1.9336-9.8633-5.4922-13.418-3.5547-3.5586-8.3906-5.5352-13.418-5.4922-5.0312 0.042968-9.832 2.1055-13.324 5.7227l-53.023 53.023h-0.003906c-3.5117 3.5195-5.4883 8.2852-5.4883 13.258s1.9766 9.7383 5.4883 13.258z"/>
 <path d="m697.07 237.77c1.5859 0.4375 3.2266 0.65625 4.875 0.65625 4.1211-0.007812 8.1289-1.3789 11.395-3.8906 3.2695-2.5156 5.6133-6.0391 6.6797-10.023l19.426-72.43c1.7344-6.4727-0.11719-13.375-4.8516-18.113-4.7383-4.7383-11.641-6.5898-18.113-4.8594-6.4727 1.7344-11.527 6.7891-13.262 13.258l-19.406 72.453c-1.2812 4.8008-0.60547 9.9141 1.8789 14.219 2.4844 4.3008 6.5781 7.4414 11.379 8.7305z"/>
 <path d="m386.89 268.37c2.4688 4.3438 6.5664 7.5195 11.387 8.8281 4.8203 1.3086 9.9648 0.64063 14.289-1.8555s7.4766-6.6172 8.75-11.445c1.2773-4.8281 0.57422-9.9688-1.9492-14.277l-75-129.9c-3.375-5.7539-9.5469-9.2812-16.219-9.2656-6.668 0.011719-12.828 3.5703-16.176 9.3359-3.3477 5.7695-3.3789 12.883-0.082031 18.68z"/>
 <path d="m119.74 344.36 129.88 75h-0.003906c4.3086 2.5234 9.4492 3.2266 14.277 1.9492 4.8281-1.2734 8.9492-4.4258 11.445-8.75s3.1641-9.4688 1.8555-14.289c-1.3086-4.8203-4.4844-8.918-8.8281-11.387l-129.88-75h0.003906c-5.7969-3.2969-12.91-3.2656-18.68 0.082031-5.7656 3.3477-9.3242 9.5078-9.3398 16.176-0.011719 6.6719 3.5156 12.844 9.2695 16.219z"/>
 <path d="m225 600c0-4.9727-1.9766-9.7422-5.4922-13.258-3.5156-3.5156-8.2852-5.4922-13.258-5.4922h-150c-6.6992 0-12.887 3.5742-16.238 9.375-3.3477 5.8008-3.3477 12.949 0 18.75 3.3516 5.8008 9.5391 9.375 16.238 9.375h150c4.9727 0 9.7422-1.9766 13.258-5.4922 3.5156-3.5156 5.4922-8.2852 5.4922-13.258z"/>
 <path d="m275.25 787.5c-2.4883-4.3125-6.5859-7.457-11.395-8.7461-4.8047-1.2852-9.9297-0.60938-14.238 1.8828l-129.88 75h0.003906c-4.3438 2.4688-7.5195 6.5664-8.8281 11.387-1.3086 4.8203-0.64062 9.9648 1.8555 14.289 2.5 4.3242 6.6172 7.4766 11.445 8.75 4.8281 1.2773 9.9688 0.57422 14.277-1.9492l129.88-75h-0.003906c4.3125-2.4844 7.457-6.5781 8.7461-11.383 1.293-4.8008 0.62109-9.9219-1.8633-14.23z"/>
 <path d="m412.5 924.75c-4.3086-2.4844-9.4297-3.1562-14.23-1.8633-4.8047 1.2891-8.8984 4.4336-11.383 8.7461l-75 129.88v-0.003906c-2.5234 4.3086-3.2266 9.4492-1.9492 14.277 1.2734 4.8281 4.4258 8.9453 8.75 11.445 4.3242 2.4961 9.4688 3.1641 14.289 1.8555 4.8203-1.3086 8.918-4.4844 11.387-8.8281l75-129.88v0.003906c2.4922-4.3086 3.168-9.4336 1.8828-14.238-1.2891-4.8086-4.4336-8.9062-8.7461-11.395z"/>
 <path d="m600 975c-4.9727 0-9.7422 1.9766-13.258 5.4922-3.5156 3.5156-5.4922 8.2852-5.4922 13.258v150c0 6.6992 3.5742 12.887 9.375 16.238 5.8008 3.3477 12.949 3.3477 18.75 0 5.8008-3.3516 9.375-9.5391 9.375-16.238v-150c0-4.9727-1.9766-9.7422-5.4922-13.258-3.5156-3.5156-8.2852-5.4922-13.258-5.4922z"/>
 <path d="m813.11 931.63c-2.4688-4.3438-6.5664-7.5195-11.387-8.8281-4.8203-1.3086-9.9648-0.64063-14.289 1.8555s-7.4766 6.6172-8.75 11.445c-1.2773 4.8281-0.57422 9.9688 1.9492 14.277l75 129.88v-0.003906c3.375 5.7539 9.5469 9.2812 16.219 9.2695 6.668-0.015625 12.828-3.5742 16.176-9.3398 3.3477-5.7695 3.3789-12.883 0.082031-18.68z"/>
 <path d="m1080.3 855.64-129.88-75h0.003906c-4.3086-2.5234-9.4492-3.2266-14.277-1.9492-4.8281 1.2734-8.9492 4.4258-11.445 8.75s-3.1641 9.4688-1.8555 14.289c1.3086 4.8203 4.4844 8.918 8.8281 11.387l129.88 75h-0.003906c5.7969 3.2969 12.91 3.2656 18.68-0.082031 5.7656-3.3477 9.3242-9.5078 9.3398-16.176 0.011719-6.6719-3.5156-12.844-9.2695-16.219z"/>
 <path d="m1143.8 581.25h-150c-6.6992 0-12.887 3.5742-16.238 9.375-3.3477 5.8008-3.3477 12.949 0 18.75 3.3516 5.8008 9.5391 9.375 16.238 9.375h150c6.6992 0 12.887-3.5742 16.238-9.375 3.3477-5.8008 3.3477-12.949 0-18.75-3.3516-5.8008-9.5391-9.375-16.238-9.375z"/>
 <path d="m924.75 412.5c2.4883 4.3125 6.5859 7.457 11.395 8.7461 4.8047 1.2852 9.9297 0.60938 14.238-1.8828l129.88-75h-0.003906c5.7539-3.375 9.2812-9.5469 9.2695-16.219-0.015625-6.668-3.5742-12.828-9.3398-16.176-5.7695-3.3477-12.883-3.3789-18.68-0.082031l-129.88 75h0.003906c-4.3125 2.4844-7.457 6.5781-8.7461 11.383-1.293 4.8008-0.62109 9.9219 1.8633 14.23z"/>
 <path d="m787.5 275.25c4.3086 2.4844 9.4297 3.1562 14.23 1.8633 4.8047-1.2891 8.8984-4.4336 11.383-8.7461l75-129.9c3.2969-5.7969 3.2656-12.91-0.082031-18.68-3.3477-5.7656-9.5078-9.3242-16.176-9.3359-6.6719-0.015625-12.844 3.5117-16.219 9.2656l-75 129.9c-2.4922 4.3086-3.168 9.4336-1.8828 14.238 1.2891 4.8086 4.4336 8.9062 8.7461 11.395z"/>
</svg>
