<svg width="82" height="39" viewBox="0 0 82 39" fill="none" xmlns="http://www.w3.org/2000/svg">
<path d="M76.95 0H4.05C1.81325 0 0 1.89035 0 4.22222V33.7778C0 36.1096 1.81325 38 4.05 38H76.95C79.1868 38 81 36.1096 81 33.7778V4.22222C81 1.89035 79.1868 0 76.95 0Z" fill="white" stroke="#D2CFCF"/>
<path d="M23.3314 12.5469V22.5H21.6293V12.5469H23.3314ZM26.4555 12.5469V13.9141H18.5326V12.5469H26.4555ZM29.2309 12V22.5H27.5902V12H29.2309ZM28.9438 18.5283L28.4105 18.5215C28.4151 18.0111 28.4857 17.5394 28.6225 17.1064C28.7637 16.6735 28.9597 16.2975 29.2104 15.9785C29.4656 15.6549 29.7709 15.4066 30.1264 15.2334C30.4818 15.0557 30.876 14.9668 31.309 14.9668C31.6736 14.9668 32.0017 15.0169 32.2934 15.1172C32.5896 15.2174 32.8448 15.3792 33.059 15.6025C33.2732 15.8213 33.435 16.1084 33.5443 16.4639C33.6583 16.8148 33.7152 17.2432 33.7152 17.749V22.5H32.0609V17.7354C32.0609 17.3799 32.0085 17.0973 31.9037 16.8877C31.8035 16.6781 31.6553 16.5277 31.4594 16.4365C31.2634 16.3408 31.0242 16.293 30.7416 16.293C30.4454 16.293 30.1833 16.3522 29.9555 16.4707C29.7322 16.5892 29.5453 16.751 29.3949 16.9561C29.2445 17.1611 29.1306 17.3981 29.0531 17.667C28.9802 17.9359 28.9438 18.223 28.9438 18.5283ZM38.6439 22.6367C38.0971 22.6367 37.6026 22.5479 37.1605 22.3701C36.723 22.1878 36.3493 21.9349 36.0395 21.6113C35.7341 21.2878 35.4994 20.9072 35.3354 20.4697C35.1713 20.0322 35.0893 19.5605 35.0893 19.0547V18.7812C35.0893 18.2025 35.1736 17.6784 35.3422 17.209C35.5108 16.7396 35.7455 16.3385 36.0463 16.0059C36.3471 15.6686 36.7025 15.4111 37.1127 15.2334C37.5229 15.0557 37.9672 14.9668 38.4457 14.9668C38.9743 14.9668 39.4369 15.0557 39.8334 15.2334C40.2299 15.4111 40.558 15.6618 40.8178 15.9854C41.0821 16.3044 41.2781 16.6849 41.4057 17.127C41.5378 17.569 41.6039 18.0566 41.6039 18.5898V19.2939H35.8891V18.1113H39.977V17.9814C39.9678 17.6852 39.9086 17.4072 39.7992 17.1475C39.6944 16.8877 39.5326 16.6781 39.3139 16.5186C39.0951 16.359 38.8035 16.2793 38.4389 16.2793C38.1654 16.2793 37.9216 16.3385 37.7074 16.457C37.4978 16.571 37.3223 16.7373 37.1811 16.9561C37.0398 17.1748 36.9304 17.4391 36.8529 17.749C36.78 18.0544 36.7436 18.3984 36.7436 18.7812V19.0547C36.7436 19.3783 36.7868 19.679 36.8734 19.957C36.9646 20.2305 37.0967 20.4697 37.2699 20.6748C37.4431 20.8799 37.6527 21.0417 37.8988 21.1602C38.1449 21.2741 38.4252 21.3311 38.7396 21.3311C39.1361 21.3311 39.4893 21.2513 39.7992 21.0918C40.1091 20.9323 40.378 20.7067 40.6059 20.415L41.474 21.2559C41.3145 21.4883 41.1072 21.7116 40.852 21.9258C40.5967 22.1354 40.2846 22.3063 39.9154 22.4385C39.5508 22.5706 39.127 22.6367 38.6439 22.6367ZM44.5365 16.6074V22.5H42.8891V15.1035H44.4408L44.5365 16.6074ZM44.2699 18.5283L43.7094 18.5215C43.7094 18.0111 43.7732 17.5394 43.9008 17.1064C44.0284 16.6735 44.2152 16.2975 44.4613 15.9785C44.7074 15.6549 45.0128 15.4066 45.3773 15.2334C45.7465 15.0557 46.1726 14.9668 46.6557 14.9668C46.9929 14.9668 47.3005 15.0169 47.5785 15.1172C47.8611 15.2129 48.1049 15.3656 48.31 15.5752C48.5196 15.7848 48.6791 16.0537 48.7885 16.3818C48.9024 16.71 48.9594 17.1064 48.9594 17.5713V22.5H47.3119V17.7148C47.3119 17.3548 47.2572 17.0723 47.1479 16.8672C47.043 16.6621 46.8904 16.5163 46.6898 16.4297C46.4939 16.3385 46.2592 16.293 45.9857 16.293C45.6758 16.293 45.4115 16.3522 45.1928 16.4707C44.9786 16.5892 44.8031 16.751 44.6664 16.9561C44.5297 17.1611 44.4294 17.3981 44.3656 17.667C44.3018 17.9359 44.2699 18.223 44.2699 18.5283ZM48.8568 18.0908L48.0844 18.2617C48.0844 17.8151 48.1459 17.3936 48.2689 16.9971C48.3965 16.596 48.5811 16.2451 48.8227 15.9443C49.0688 15.639 49.3718 15.3997 49.7318 15.2266C50.0919 15.0534 50.5043 14.9668 50.9691 14.9668C51.3474 14.9668 51.6846 15.0192 51.9809 15.124C52.2816 15.2243 52.5368 15.3838 52.7465 15.6025C52.9561 15.8213 53.1156 16.1061 53.225 16.457C53.3344 16.8034 53.3891 17.2227 53.3891 17.7148V22.5H51.7348V17.708C51.7348 17.3343 51.6801 17.0449 51.5707 16.8398C51.4659 16.6348 51.3155 16.4935 51.1195 16.416C50.9236 16.334 50.6889 16.293 50.4154 16.293C50.1602 16.293 49.9346 16.3408 49.7387 16.4365C49.5473 16.5277 49.3855 16.6576 49.2533 16.8262C49.1212 16.9902 49.0209 17.1794 48.9525 17.3936C48.8887 17.6077 48.8568 17.8402 48.8568 18.0908ZM58.3451 22.6367C57.7982 22.6367 57.3038 22.5479 56.8617 22.3701C56.4242 22.1878 56.0505 21.9349 55.7406 21.6113C55.4353 21.2878 55.2006 20.9072 55.0365 20.4697C54.8725 20.0322 54.7904 19.5605 54.7904 19.0547V18.7812C54.7904 18.2025 54.8747 17.6784 55.0434 17.209C55.212 16.7396 55.4467 16.3385 55.7475 16.0059C56.0482 15.6686 56.4037 15.4111 56.8139 15.2334C57.224 15.0557 57.6684 14.9668 58.1469 14.9668C58.6755 14.9668 59.1381 15.0557 59.5346 15.2334C59.9311 15.4111 60.2592 15.6618 60.5189 15.9854C60.7833 16.3044 60.9792 16.6849 61.1068 17.127C61.239 17.569 61.3051 18.0566 61.3051 18.5898V19.2939H55.5902V18.1113H59.6781V17.9814C59.669 17.6852 59.6098 17.4072 59.5004 17.1475C59.3956 16.8877 59.2338 16.6781 59.015 16.5186C58.7963 16.359 58.5046 16.2793 58.14 16.2793C57.8666 16.2793 57.6228 16.3385 57.4086 16.457C57.199 16.571 57.0235 16.7373 56.8822 16.9561C56.741 17.1748 56.6316 17.4391 56.5541 17.749C56.4812 18.0544 56.4447 18.3984 56.4447 18.7812V19.0547C56.4447 19.3783 56.488 19.679 56.5746 19.957C56.6658 20.2305 56.7979 20.4697 56.9711 20.6748C57.1443 20.8799 57.3539 21.0417 57.6 21.1602C57.8461 21.2741 58.1264 21.3311 58.4408 21.3311C58.8373 21.3311 59.1905 21.2513 59.5004 21.0918C59.8103 20.9323 60.0792 20.7067 60.307 20.415L61.1752 21.2559C61.0157 21.4883 60.8083 21.7116 60.5531 21.9258C60.2979 22.1354 59.9857 22.3063 59.6166 22.4385C59.252 22.5706 58.8282 22.6367 58.3451 22.6367Z" fill="#212121"/>
</svg>
